mtllib Untitled.mtl
o Default
v 2 0.5 2
v 0 1.5 2
v 0 1 0
v 2 1 0
v 4 0 2
v 2 0.5 2
v 2 1 0
v 4 0 0
v 6 0 2
v 4 0 2
v 4 0 0
v 6 0 0
v 2 0 4
v 0 0 4
v 2 0.5 2
v 4 0 4
v 2 0 4
v 6 0 4
v 4 0 4
v 4 0 -2
v 6 0 -2
v 2 1 0
v 2 0 -2
v 4 0 -2
v 2 1 0
v 0 0 -2
v 2 0 -2
v 0 1 0
v -2 0.5 0
v -2 0 -2
v 0 0 -2
v 0 1.5 2
v -2 1 2
v 0 1 0
v 0 0 4
v -2 0 4
v -2 0 4
v -4 0 4
v -4 0 2
v -2 1 2
v -4 0 0
v -2 0.5 0
v -4 0.5 -2
v -2 0 -2
v -4 0.5 -2
v -4 0.5 -4
v -2 0.5 -4
v -2 0.5 -4
v 0 0 -4
v 0 0 -4
v 2 0 -4
v 2 0 -4
v 4 0.5 -4
v 4 0.5 -4
v 6 0 -4
v -4 0 -6
v -2 0 -6
v -4 0 -8
v -2 0 -8
v -2 0 -6
v 0 0 -6
v -2 0 -8
v 0 0 -8
v 0 0 -6
v 2 0 -6
v 0 0 -8
v 2 0 -8
v 4 0.5 -4
v 2 0 -6
v 4 1 -6
v 2 0 -8
v 4 0 -8
v 6 0 -4
v 4 1 -6
v 6 0 -6
v 4 0 -8
v 6 0 -8
v 0 1 -8
v 2 2 -8
v 2 2 -10
v 2 0 -10
v 0 1 -10
v 0 0 -10
v -2 1 -8
v -2 1 -10
v 0 1 -8
v 0 1 -10
v -2 1 -8
vt 0 0
vt 1 1
vt 0 1
vt 0 0
vt 1 0
vt 1 1
vt 0 0
vt 1 1
vt 0 1
vt 0 0
vt 1 0
vt 1 1
vt 0 0
vt 1 1
vt 0 1
vt 0 0
vt 1 0
vt 1 1
vt 0 0
vt 1 1
vt 0 1
vt 0 0
vt 1 0
vt 1 1
vt 0 0
vt 1 1
vt 0 1
vt 0 0
vt 1 0
vt 1 1
vt 0 0
vt 1 1
vt 0 1
vt 0 0
vt 1 0
vt 1 1
vt 0 0
vt 1 1
vt 0 1
vt 0 0
vt 1 0
vt 1 1
vt 0 0
vt 1 1
vt 0 1
vt 0 0
vt 1 0
vt 1 1
vt 0 0
vt 1 1
vt 0 1
vt 0 0
vt 1 0
vt 1 1
vt 0 0
vt 1 1
vt 0 1
vt 0 0
vt 1 0
vt 1 1
vt 0 0
vt 1 1
vt 0 1
vt 0 0
vt 1 0
vt 1 1
vt 0 0
vt 1 1
vt 0 1
vt 0 0
vt 1 0
vt 1 1
vt 0 0
vt 1 1
vt 0 1
vt 0 0
vt 1 0
vt 1 1
vt 0 0
vt 1 1
vt 0 1
vt 0 0
vt 1 0
vt 1 1
vt 0 0
vt 1 1
vt 0 1
vt 0 0
vt 1 0
vt 1 1
vt 0 0
vt 1 1
vt 0 1
vt 0 0
vt 1 0
vt 1 1
vt 0 0
vt 1 1
vt 0 1
vt 0 0
vt 1 0
vt 1 1
vt 0 0
vt 1 1
vt 0 1
vt 0 0
vt 1 0
vt 1 1
vt 0 0
vt 1 1
vt 0 1
vt 0 0
vt 1 0
vt 1 1
vt 0 0
vt 1 1
vt 0 1
vt 0 0
vt 1 0
vt 1 1
vt 0 0
vt 1 1
vt 0 1
vt 0 0
vt 1 0
vt 1 1
vt 0 0
vt 1 1
vt 0 1
vt 0 0
vt 1 0
vt 1 1
vt 0 0
vt 1 1
vt 0 1
vt 0 0
vt 1 0
vt 1 1
vt 0 0
vt 1 1
vt 0 1
vt 0 0
vt 1 0
vt 1 1
vt 0 0
vt 1 1
vt 0 1
vt 0 0
vt 1 0
vt 1 1
vt 0 0
vt 1 1
vt 0 1
vt 0 0
vt 1 0
vt 1 1
vt 0 0
vt 1 1
vt 0 1
vt 0 0
vt 1 0
vt 1 1
vt 0 0
vt 1 1
vt 0 1
vt 0 0
vt 1 0
vt 1 1
vt 0 0
vt 1 1
vt 0 1
vt 0 0
vt 1 0
vt 1 1
vt 0 0
vt 1 1
vt 0 1
vt 0 0
vt 1 0
vt 1 1
vt 0 0
vt 1 1
vt 0 0.5
vt 0 0
vt 1 0
vt 1 1
vt 0 0
vt 1 1
vt 0 1
vt 0 0
vt 1 0
vt 1 1
vt 0 0
vt 1 0.5
vt 0 1
vt 0 0
vt 1 0
vt 1 0.5
vt 0 0
vt 1 1
vt 0 1
vt 0 0
vt 1 0
vt 1 1
vt 0 0
vt 1 1
vt 0 1
vt 0 0
vt 1 0
vt 1 1
vt 0 1
vt 0.5 0
vt 0.5 1
vt 0 1
vt 0 0
vt 0.5 0
vn 0.23050135267069125 0.9729872506997015 0.012842756433795616
vn 0.15573408636503341 0.976218723337442 -0.15081080382208398
vn 0.31664653842725965 0.9232463106249863 0.21760335387899102
vn 0.23050135267069125 0.9729872506997015 0.012842756433795616
vn 0.00009701392373635042 0.970142495442398 0.24253562444534912
vn 0.15573408636503341 0.976218723337442 -0.15081080382208398
vn 0.31217146802567386 0.9466949833552146 0.07948322490164632
vn 0.3460056552590243 0.9306052391117159 0.11939001409916755
vn 0.16158621640709542 0.9735556561660152 0.1614908016402148
vn 0.31217146802567386 0.9466949833552146 0.07948322490164632
vn 0.2979595073638631 0.9439352175951529 -0.14214934736071
vn 0.3460056552590243 0.9306052391117159 0.11939001409916755
vn 0.0000999899998081756 0.9999999950009999 -3.3326666437197177e-13
vn 0.0000999899998081756 0.9999999950009999 -3.3326666437197177e-13
vn 0.0000999899998081756 0.9999999950009999 -1.6663333218598588e-13
vn 0.0000999899998081756 0.9999999950009999 -3.3326666437197177e-13
vn 0.0000999899998081756 0.9999999950009999 -1.6663333218598588e-13
vn 0.0000999899998081756 0.9999999950009999 -3.3326666437197177e-13
vn 0.22825530038316183 0.8745903098137229 0.42777483309204717
vn 0.31664653842725965 0.9232463106249863 0.21760335387899102
vn 0.00007999200202156086 0.8000000177531789 0.5999999709968269
vn 0.22825530038316183 0.8745903098137229 0.42777483309204717
vn 0.43650639050052015 0.8728383298881799 0.21820958028973125
vn 0.31664653842725965 0.9232463106249863 0.21760335387899102
vn 0.12318700950859066 0.9847199892530474 0.12309144346301532
vn 0.16158621640709542 0.9735556561660152 0.1614908016402148
vn 0.00009700454857913235 0.9701424970527412 0.24253561800772605
vn 0.12318700950859066 0.9847199892530474 0.12309144346301532
vn 0.31217146802567386 0.9466949833552146 0.07948322490164632
vn 0.16158621640709542 0.9735556561660152 0.1614908016402148
vn 0.00009998999980817563 0.9999999950010001 0
vn 0.0000999899998081756 0.9999999950009999 -1.6663333218598588e-13
vn 0.00009998999980817563 0.9999999950010001 0
vn 0.00009998999980817563 0.9999999950010001 0
vn 0.0000999899998081756 0.9999999950009999 -3.3326666437197177e-13
vn 0.0000999899998081756 0.9999999950009999 -1.6663333218598588e-13
vn 0.0000999899998081756 0.9999999950009999 -1.6663333218598588e-13
vn 0.00009965829041304386 0.9966825693173327 0.08138701424198824
vn 0.0000999899998081756 0.9999999950009999 -3.3326666437197177e-13
vn 0.0000999899998081756 0.9999999950009999 -1.6663333218598588e-13
vn 0.08202888734565693 0.993256508201785 0.08193149916626036
vn 0.00009965829041304386 0.9966825693173327 0.08138701424198824
vn 0.2979595073638631 0.9439352175951529 -0.14214934736071
vn 0.14208905557812 0.9796168778438826 -0.14199110158147812
vn 0.4083163281397968 0.8164693622615096 -0.4082346833167386
vn 0.2979595073638631 0.9439352175951529 -0.14214934736071
vn -0.07948784960203165 0.9936536413332144 0.07958720268289644
vn 0.14208905557812 0.9796168778438826 -0.14199110158147812
vn 0.00008942643506244261 0.8944271935302673 -0.4472135814982394
vn 0.00009520809918328504 0.9522263369287332 -0.30539317967941704
vn 0.15573408636503341 0.976218723337442 -0.15081080382208398
vn 0.00008942643506244261 0.8944271935302673 -0.4472135814982394
vn 0.00009881742857600735 0.988273110026942 -0.15269659535428956
vn 0.00009520809918328504 0.9522263369287332 -0.30539317967941704
vn -0.11930239665898297 0.9306455883319701 -0.34592734362820154
vn -0.08256342480395783 0.9845460981131446 -0.15444177406007584
vn -0.23561322334600138 0.9428299916797667 -0.235707479248407
vn -0.11930239665898297 0.9306455883319701 -0.34592734362820154
vn 0.08512530783511923 0.9937830659657861 -0.0717558343664012
vn -0.08256342480395783 0.9845460981131446 -0.15444177406007584
vn -0.2422257625626945 0.9692907464776387 0.04245148694384211
vn -0.23561322334600138 0.9428299916797667 -0.235707479248407
vn -0.15552992213854894 0.944836870297995 0.28825983390869164
vn -0.2422257625626945 0.9692907464776387 0.04245148694384211
vn -0.2356132134276248 0.9428299940866661 -0.23570747953521914
vn -0.23561322334600138 0.9428299916797667 -0.235707479248407
vn -0.09885035447098571 0.846946430789136 0.5224082223649468
vn -0.15552992213854894 0.944836870297995 0.28825983390869164
vn 0.00008943377619343222 0.8944272018994472 0.447213564758411
vn -0.09885035447098571 0.846946430789136 0.5224082223649468
vn -0.2422257625626945 0.9692907464776387 0.04245148694384211
vn -0.15552992213854894 0.944836870297995 0.28825983390869164
vn -0.2140991419358165 0.9530384569589732 0.2141944373218101
vn -0.29779473328877404 0.9439856378217922 0.14215981292774724
vn 0.00009998999980817563 0.9999999950010001 -4.998999965579578e-13
vn -0.2140991419358165 0.9530384569589732 0.2141944373218101
vn -0.3795239417333464 0.9232323723450914 0.060029695195279516
vn -0.29779473328877404 0.9439856378217922 0.14215981292774724
vn -0.3795239417333464 0.9232323723450914 0.060029695195279516
vn -0.31366324312922494 0.9495342910657081 2.9123549997054067e-10
vn -0.29779473328877404 0.9439856378217922 0.14215981292774724
vn -0.3795239417333464 0.9232323723450914 0.060029695195279516
vn -0.0826668526899673 0.9931350223028758 -0.08275879978468566
vn -0.31366324312922494 0.9495342910657081 2.9123549997054067e-10
vn -0.0826668526899673 0.9931350223028758 -0.08275879978468566
vn 0.00009443472213180802 0.9999999955256111 0.0000055552776993417605
vn -0.31366324312922494 0.9495342910657081 2.9123549997054067e-10
vn -0.0826668526899673 0.9931350223028758 -0.08275879978468566
vn 0.16373492547990864 0.9865015958763522 0.0023399810894792193
vn 0.00009443472213180802 0.9999999955256111 0.0000055552776993417605
vn 0.16373492547990864 0.9865015958763522 0.0023399810894792193
vn 0.0831431404999494 0.9965376150390942 -2.7447139995152756e-9
vn 0.2426269144808039 0.9701196732205386 -1.213013240789152e-9
vn 0.16373492547990864 0.9865015958763522 0.0023399810894792193
vn 0.00009964461016030501 0.9965457531087447 -0.08304548170657287
vn 0.0831431404999494 0.9965376150390942 -2.7447139995152756e-9
vn 0.08512530783511923 0.9937830659657861 -0.0717558343664012
vn 0.1637349274232574 0.9865015955459565 0.00233998439794898
vn -0.08256342480395783 0.9845460981131446 -0.15444177406007584
vn 0.08512530783511923 0.9937830659657861 -0.0717558343664012
vn 0.1615881290448408 0.9836434905394088 -0.07959120599184084
vn 0.1637349274232574 0.9865015955459565 0.00233998439794898
vn 0.00009881742857600735 0.988273110026942 -0.15269659535428956
vn 0.0000999899998081756 0.9999999950009999 -4.432385878170818e-9
vn 0.00009520809918328504 0.9522263369287332 -0.30539317967941704
vn 0.00009881742857600735 0.988273110026942 -0.15269659535428956
vn 0.0000999899998081756 0.9999999950009999 -2.2161929390854086e-9
vn 0.0000999899998081756 0.9999999950009999 -4.432385878170818e-9
vn -0.07948784960203165 0.9936536413332144 0.07958720268289644
vn -0.16139900085082667 0.9836742474877603 0.07959483245627914
vn 0.14208905557812 0.9796168778438826 -0.14199110158147812
vn -0.07948784960203165 0.9936536413332144 0.07958720268289644
vn -0.23561322364220644 0.9428299888523287 0.2357074902620731
vn -0.16139900085082667 0.9836742474877603 0.07959483245627914
vn 0.08202888734565693 0.993256508201785 0.08193149916626036
vn 0.16158622274089204 0.9735556558515932 0.16149079719818393
vn 0.00009965829041304386 0.9966825693173327 0.08138701424198824
vn 0.08202888734565693 0.993256508201785 0.08193149916626036
vn 0.24262692021300933 0.9701196717869142 0
vn 0.16158622274089204 0.9735556558515932 0.16149079719818393
vn 0.00009964461016030501 0.9965457531087447 -0.08304548170657287
vn 0.00009865647068127607 0.9866633701105957 -0.16277402848397646
vn 0.0831431404999494 0.9965376150390942 -2.7447139995152756e-9
vn 0.00009964461016030501 0.9965457531087447 -0.08304548170657287
vn 0.00009965829041304386 0.9966825693173327 -0.08138701424198824
vn 0.00009865647068127607 0.9866633701105957 -0.16277402848397646
vn 0.00009965829041304386 0.9966825693173327 -0.08138701424198824
vn 0.00009998999980817563 0.9999999950010001 0
vn 0.00009865647068127607 0.9866633701105957 -0.16277402848397646
vn 0.00009965829041304386 0.9966825693173327 -0.08138701424198824
vn 0.00004471688732825431 0.44721359326433713 0.8944271909999159
vn 0.00009998999980817563 0.9999999950010001 0
vn 0.1615881290448408 0.9836434905394088 -0.07959120599184084
vn 0.07968292700671589 0.9936383074511378 -0.07958357311204779
vn 0.1637349274232574 0.9865015955459565 0.00233998439794898
vn 0.1615881290448408 0.9836434905394088 -0.07959120599184084
vn 0.0000999899998081756 0.9999999950009999 0
vn 0.07968292700671589 0.9936383074511378 -0.07958357311204779
vn 0.0000999899998081756 0.9999999950009999 0
vn 0.00009998999980817563 0.9999999950010001 0
vn 0.07968292700671589 0.9936383074511378 -0.07958357311204779
vn 0.0000999899998081756 0.9999999950009999 0
vn 0.000031619614263363424 0.3162277644360153 0.9486832980505138
vn 0.00009998999980817563 0.9999999950010001 0
vn 0.0000999899998081756 0.9999999950009999 -2.2161929390854086e-9
vn 0.0000999899998081756 0.9999999950009999 0
vn 0.0000999899998081756 0.9999999950009999 -4.432385878170818e-9
vn 0.0000999899998081756 0.9999999950009999 -2.2161929390854086e-9
vn 0.0000999899998081756 0.9999999950009999 0
vn 0.0000999899998081756 0.9999999950009999 0
vn 0.0000999899998081756 0.9999999950009999 0
vn 0.00009998999980817563 0.9999999950010001 0
vn 0.0000999899998081756 0.9999999950009999 0
vn 0.0000999899998081756 0.9999999950009999 0
vn 0.8165101878432007 0.40823468065714763 0.4082346857593287
vn 0.00009998999980817563 0.9999999950010001 0
vn -0.34349465043255634 0.9326398524478899 0.11042794370173802
vn -0.37935395399631006 0.9223257190384089 0.07352445571133333
vn -0.16139900085082667 0.9836742474877603 0.07959483245627914
vn -0.34349465043255634 0.9326398524478899 0.11042794370173802
vn -0.3139481747758581 0.9459462322683236 -0.08137732615581612
vn -0.37935395399631006 0.9223257190384089 0.07352445571133333
vn -0.3139481747758581 0.9459462322683236 -0.08137732615581612
vn -0.23561793549289733 0.9428299888043484 -0.2357027803935653
vn -0.37935395399631006 0.9223257190384089 0.07352445571133333
vn -0.3139481747758581 0.9459462322683236 -0.08137732615581612
vn 0.00008943377496970003 0.8944271896609014 -0.4472135892355042
vn -0.23561793549289733 0.9428299888043484 -0.2357027803935653
vn 0.34600565766681085 0.9306052394860873 0.11939000420303175
vn 0.37968068153605844 0.9231683262605793 -0.06002350754125265
vn 0.16158622274089204 0.9735556558515932 0.16149079719818393
vn 0.34600565766681085 0.9306052394860873 0.11939000420303175
vn 0.297959500734833 0.9439352195977568 -0.14214934795764497
vn 0.37968068153605844 0.9231683262605793 -0.06002350754125265
vn 0.297959500734833 0.9439352195977568 -0.14214934795764497
vn 0.21427384188907184 0.953002764358535 -0.214178551230247
vn 0.37968068153605844 0.9231683262605793 -0.06002350754125265
vn 0.297959500734833 0.9439352195977568 -0.14214934795764497
vn 0.00009998999980817563 0.9999999950010001 -4.100740407368997e-14
vn 0.21427384188907184 0.953002764358535 -0.214178551230247
vn 0.000031619614263363424 0.3162277644360153 0.9486832980505138
vn 0.039353646032518286 0.6661613352799663 0.7447686660446715
vn 0.00004159835442460578 0.5547001946654948 0.8320502943378117
vn 0.000031619614263363424 0.3162277644360153 0.9486832980505138
vn 0.8165101878432007 0.40823468065714763 0.4082346857593287
vn 0.039353646032518286 0.6661613352799663 0.7447686660446715
vn 0.8165101878432007 0.40823468065714763 0.4082346857593287
vn 0.7566857117179163 0.43585980736954094 -0.4872914548827394
vn 0.039353646032518286 0.6661613352799663 0.7447686660446715
vn 0.8165101878432007 0.40823468065714763 0.4082346857593287
vn 0.4472135961707112 0 -0.8944271906645391
vn 0.7566857117179163 0.43585980736954094 -0.4872914548827394
vn 0.4472135961707112 0 -0.8944271906645391
vn 0.00003353766544378604 0.44721359424242124 -0.8944271909999159
vn 0.7566857117179163 0.43585980736954094 -0.4872914548827394
vn 0.4472135961707112 0 -0.8944271906645391
vn 0 0 -1
vn 0.00003353766544378604 0.44721359424242124 -0.8944271909999159
vn 0.00004159835442460578 0.5547001946654948 0.8320502943378117
vn 0.00007499249992641375 0.9999999971880627 -1.8746250351645113e-13
vn 0.00007499250011387625 0.9999999971880625 -3.7492500703290216e-13
vn 0.00004159835442460578 0.5547001946654948 0.8320502943378117
vn 0.00003353766544378604 0.44721359424242124 -0.8944271909999159
vn 0.00007499249992641375 0.9999999971880627 -1.8746250351645113e-13
vn 0.039353646032518286 0.6661613352799663 0.7447686660446715
vn -0.4471599063296967 0.8944540335708799 1.1177878992950455e-9
vn -0.44715990722398075 0.8944540331238051 2.2355758978795355e-9
vn 0.039353646032518286 0.6661613352799663 0.7447686660446715
vn 0.7566857117179163 0.43585980736954094 -0.4872914548827394
vn -0.4471599063296967 0.8944540335708799 1.1177878992950455e-9
vn 0.00004471688732825431 0.44721359326433713 0.8944271909999159
vn 0.00004159835442460578 0.5547001946654948 0.8320502943378117
vn 0 0 1
vn 0.00004471688732825431 0.44721359326433713 0.8944271909999159
vn 0.000031619614263363424 0.3162277644360153 0.9486832980505138
vn 0.00004159835442460578 0.5547001946654948 0.8320502943378117
g Scene
usemtl material1
f 1/1/1 3/2/2 2/3/3
f 1/4/4 4/5/5 3/6/6
f 5/7/7 7/8/8 6/9/9
f 5/10/10 8/11/11 7/12/12
f 9/13/13 11/14/14 10/15/15
f 9/16/16 12/17/17 11/18/18
f 13/19/19 2/20/20 14/21/21
f 13/22/22 15/23/23 2/24/24
f 16/25/25 6/26/26 17/27/27
f 16/28/28 5/29/29 6/30/30
f 18/31/31 10/32/32 19/33/33
f 18/34/34 9/35/35 10/36/36
f 12/37/37 20/38/38 11/39/39
f 12/40/40 21/41/41 20/42/42
f 8/43/43 23/44/44 22/45/45
f 8/46/46 24/47/47 23/48/48
f 25/49/49 26/50/50 3/51/51
f 25/52/52 27/53/53 26/54/54
f 28/55/55 30/56/56 29/57/57
f 28/58/58 31/59/59 30/60/60
f 32/61/61 29/62/62 33/63/63
f 32/64/64 34/65/65 29/66/66
f 35/67/67 33/68/68 36/69/69
f 35/70/70 32/71/71 33/72/72
f 37/73/73 39/74/74 38/75/75
f 37/76/76 40/77/77 39/78/78
f 40/79/79 41/80/80 39/81/81
f 40/82/82 42/83/83 41/84/84
f 42/85/85 43/86/86 41/87/87
f 42/88/88 44/89/89 43/90/90
f 44/91/91 46/92/92 45/93/93
f 44/94/94 47/95/95 46/96/96
f 31/97/97 48/98/98 30/99/99
f 31/100/100 49/101/101 48/102/102
f 27/103/103 50/104/104 26/105/105
f 27/106/106 51/107/107 50/108/108
f 24/109/109 52/110/110 23/111/111
f 24/112/112 53/113/113 52/114/114
f 21/115/115 54/116/116 20/117/117
f 21/118/118 55/119/119 54/120/120
f 47/121/121 56/122/122 46/123/123
f 47/124/124 57/125/125 56/126/126
f 57/127/127 58/128/128 56/129/129
f 57/130/130 59/131/131 58/132/132
f 49/133/133 60/134/134 48/135/135
f 49/136/136 61/137/137 60/138/138
f 61/139/139 62/140/140 60/141/141
f 61/142/142 63/143/143 62/144/144
f 51/145/145 64/146/146 50/147/147
f 51/148/148 65/149/149 64/150/150
f 65/151/151 66/152/152 64/153/153
f 65/154/154 67/155/155 66/156/156
f 68/157/157 69/158/158 52/159/159
f 68/160/160 70/161/161 69/162/162
f 70/163/163 71/164/164 69/165/165
f 70/166/166 72/167/167 71/168/168
f 73/169/169 74/170/170 54/171/171
f 73/172/172 75/173/173 74/174/174
f 75/175/175 76/176/176 74/177/177
f 75/178/178 77/179/179 76/180/180
f 63/181/181 79/182/182 78/183/183
f 63/184/184 67/185/185 79/186/186
f 67/187/187 80/188/188 79/189/189
f 67/190/190 81/191/191 80/192/192
f 81/193/193 82/194/194 80/195/195
f 81/196/196 83/197/197 82/198/198
f 78/199/199 85/200/200 84/201/201
f 78/202/202 82/203/203 85/204/204
f 79/205/205 87/206/206 86/207/207
f 79/208/208 80/209/209 87/210/210
f 59/211/211 78/212/212 88/213/213
f 59/214/214 63/215/215 78/216/216
